HIERARCHY
ROOT Hips
{
    OFFSET 0.000000 0.000000 0.000000
    CHANNELS 6 Xposition Yposition Zposition Zrotation Xrotation Yrotation
    JOINT Spine
    {
        OFFSET -0.000000 0.083210 0.000000
        CHANNELS 3 Zrotation Xrotation Yrotation
        JOINT Spine1
        {
            OFFSET -0.000000 0.256334 0.000000
            CHANNELS 3 Zrotation Xrotation Yrotation
            JOINT Neck
            {
                OFFSET -0.000000 0.275576 0.002912
                CHANNELS 3 Zrotation Xrotation Yrotation
                JOINT Head
                {
                    OFFSET -0.000000 0.157287 0.020295
                    CHANNELS 3 Zrotation Xrotation Yrotation
                    End Site
                    {
                        OFFSET -0.000000 0.202951 0.000000
                    }
                }
            }
            JOINT LeftShoulder
            {
                OFFSET 0.041044 0.235234 -0.000041
                CHANNELS 3 Zrotation Xrotation Yrotation
                JOINT LeftArm
                {
                    OFFSET 0.117964 0.000000 0.000000
                    CHANNELS 3 Zrotation Xrotation Yrotation
                    JOINT LeftForeArm
                    {
                        OFFSET 0.291248 0.000000 0.000000
                        CHANNELS 3 Zrotation Xrotation Yrotation
                        JOINT LeftHand
                        {
                            OFFSET 0.245673 0.000000 0.000000
                            CHANNELS 3 Zrotation Xrotation Yrotation
                            End Site
                            {
                                OFFSET 0.152213 0.000000 0.000000
                            }
                        }
                    }
                }
            }
            JOINT RightShoulder
            {
                OFFSET -0.040052 0.235234 -0.000041
                CHANNELS 3 Zrotation Xrotation Yrotation
                JOINT RightArm
                {
                    OFFSET -0.117964 0.000000 0.000000
                    CHANNELS 3 Zrotation Xrotation Yrotation
                    JOINT RightForeArm
                    {
                        OFFSET -0.291248 0.000000 0.000000
                        CHANNELS 3 Zrotation Xrotation Yrotation
                        JOINT RightHand
                        {
                            OFFSET -0.245673 0.000000 0.000000
                            CHANNELS 3 Zrotation Xrotation Yrotation
                            End Site
                            {
                                OFFSET -0.152213 0.000000 0.000000
                            }
                        }
                    }
                }
            }
        }
    }
    JOINT LeftUpLeg
    {
        OFFSET 0.101475 0.000000 0.000000
        CHANNELS 3 Zrotation Xrotation Yrotation
        JOINT LeftLeg
        {
            OFFSET -0.000000 -0.446535 0.000000
            CHANNELS 3 Zrotation Xrotation Yrotation
            JOINT LeftFoot
            {
                OFFSET -0.000000 -0.400037 0.000000
                CHANNELS 3 Zrotation Xrotation Yrotation
                JOINT LeftToeBase
                {
                    OFFSET -0.000000 -0.065959 0.152213
                    CHANNELS 3 Zrotation Xrotation Yrotation
                    End Site
                    {
                        OFFSET -0.000000 0.000000 0.040590
                    }
                }
            }
        }
    }
    JOINT RightUpLeg
    {
        OFFSET -0.101475 0.000000 0.000000
        CHANNELS 3 Zrotation Xrotation Yrotation
        JOINT RightLeg
        {
            OFFSET -0.000000 -0.446535 0.000000
            CHANNELS 3 Zrotation Xrotation Yrotation
            JOINT RightFoot
            {
                OFFSET -0.000000 -0.400037 0.000000
                CHANNELS 3 Zrotation Xrotation Yrotation
                JOINT RightToeBase
                {
                    OFFSET -0.000000 -0.065959 0.152213
                    CHANNELS 3 Zrotation Xrotation Yrotation
                    End Site
                    {
                        OFFSET -0.000000 0.000000 0.040590
                    }
                }
            }
        }
    }
}
MOTION
Frames:    4
Frame Time:    0.008333
-2.002294    0.764516    -0.744572    1.131230    0.973910    38.844418    -0.494655    18.826925    0.989157    -2.506838    4.165983    0.391412    3.823881    16.723225    -0.958820    -2.021737    -18.943705    0.001463    3.056196    5.289710    -27.265579    -57.641590    22.482819    -22.296087    60.808468    -37.685730    -45.315884    32.990929    -13.538690    -5.344970    -2.237549    0.010428    30.757570    30.828430    41.758759    40.737320    -26.129457    -37.865177    92.257423    1.580951    -12.861679    -16.023870    32.664295    -39.576019    15.769267    -8.127569    58.643410    -2.840090    -16.151527    -11.909203    -4.445278    0.802841    5.101727    -6.174016    -26.183550    -26.863092    -2.314151    12.111201    77.576073    2.907323    23.042780    -26.251186    -4.186580    0.440464    -22.316591    1.986176    
-2.003476    0.764382    -0.743693    1.157940    0.906756    39.179207    -0.546510    18.764214    1.190747    -2.375118    4.153849    0.450586    4.148549    16.858540    -1.091886    -2.035397    -19.006836    -0.039847    3.118337    5.304883    -27.348785    -57.832508    22.492567    -22.251780    60.703342    -37.614876    -45.288151    32.578503    -13.501194    -5.306542    -2.127071    -0.094189    30.768841    30.974276    41.908375    40.509739    -25.950691    -37.807800    92.329391    1.531165    -12.952399    -16.134047    32.734184    -39.557850    15.942024    -7.893965    58.443794    -3.276958    -16.294968    -11.800847    -4.465266    0.794537    5.132421    -6.097883    -26.121389    -26.469795    -2.604950    12.307547    77.492393    2.696100    22.900883    -26.844004    -4.303992    0.420194    -21.954681    1.922919    
-2.004571    0.764311    -0.742982    1.186696    0.843668    39.453014    -0.517599    18.651604    1.290852    -2.375247    4.351137    0.489487    4.454929    16.696753    -1.180101    -2.107693    -19.043180    -0.055180    3.266151    5.222324    -27.338594    -58.093800    22.604553    -22.149775    60.983513    -37.670609    -45.107033    31.884048    -13.509824    -5.332615    -2.110705    -0.344838    30.791883    31.271420    42.066223    40.387787    -25.753048    -37.781055    92.497414    1.508811    -13.059668    -16.285435    32.792831    -39.507717    16.040136    -7.776462    58.228237    -3.530249    -16.378355    -11.685813    -4.453509    0.786570    5.067736    -6.062753    -26.049685    -26.085087    -2.852232    12.389346    77.362679    2.636509    22.793528    -27.479059    -4.409110    0.406092    -21.582712    1.887158    
-2.005638    0.764311    -0.742354    1.208466    0.770048    39.694042    -0.512855    18.626165    1.434775    -2.376327    4.417750    0.538768    4.978001    16.708569    -1.362570    -2.351018    -19.333002    -0.118177    3.391140    5.283567    -27.484840    -58.278179    22.581099    -22.076252    61.183201    -37.765282    -45.119678    31.743858    -13.451924    -5.178288    -2.049977    -0.439152    30.744129    31.651777    42.110779    40.081154    -25.528692    -37.826485    92.906143    1.967089    -13.237509    -16.535847    32.822643    -39.453545    16.052486    -7.655367    58.014465    -3.643564    -16.505791    -11.565247    -4.487096    0.777698    4.981287    -6.029069    -25.948006    -25.690380    -3.062605    12.390841    77.180771    2.536496    22.737686    -28.070030    -4.412307    0.407837    -21.151327    1.929866    
